<svg aria-hidden="true" style="position: absolute; width: 0; height: 0; overflow: hidden;" version="1.1" xmlns="http://www.w3.org/2000/svg" xmlns:xlink="http://www.w3.org/1999/xlink">
<defs>
<symbol id="icon-check" viewBox="0 0 20 20">
<path d="M8.294 16.998c-0.435 0-0.847-0.203-1.111-0.553l-3.573-4.721c-0.465-0.613-0.344-1.486 0.27-1.951 0.615-0.467 1.488-0.344 1.953 0.27l2.351 3.104 5.911-9.492c0.407-0.652 1.267-0.852 1.921-0.445s0.854 1.266 0.446 1.92l-6.984 11.21c-0.242 0.391-0.661 0.635-1.12 0.656-0.022 0.002-0.042 0.002-0.064 0.002z"></path>
</symbol>
<symbol id="icon-circle-with-cross" viewBox="0 0 20 20">
<path d="M10 1.6c-4.639 0-8.4 3.761-8.4 8.4s3.761 8.4 8.4 8.4 8.4-3.761 8.4-8.4c0-4.639-3.761-8.4-8.4-8.4zM14.789 13.061l-1.729 1.729-3.060-3.061-3.061 3.060-1.729-1.729 3.062-3.060-3.061-3.061 1.729-1.728 3.060 3.060 3.061-3.061 1.729 1.729-3.062 3.061 3.061 3.061z"></path>
</symbol>
<symbol id="icon-clipboard" viewBox="0 0 20 20">
<path d="M15.6 2l-1.2 3h-8.8l-1.2-3c-0.771 0-1.4 0.629-1.4 1.4v15.2c0 0.77 0.629 1.4 1.399 1.4h11.2c0.77 0 1.4-0.631 1.4-1.4v-15.2c0.001-0.771-0.63-1.4-1.399-1.4zM13.6 4l0.9-2h-2.181l-0.719-2h-3.2l-0.72 2h-2.18l0.899 2h7.201z"></path>
</symbol>
<symbol id="icon-credit" viewBox="0 0 20 20">
<path d="M11 16.755v2.245h-2v-2.143c-1.712-0.1-3.066-0.589-4.241-1.797l1.718-1.74c0.859 0.87 2.023 1.16 3.282 1.16 1.565 0 2.405-0.599 2.405-1.702 0-0.483-0.133-0.889-0.42-1.16-0.267-0.251-0.572-0.387-1.202-0.483l-1.642-0.232c-1.164-0.174-2.022-0.541-2.634-1.141-0.648-0.657-0.973-1.546-0.973-2.707 0-2.155 1.382-3.743 3.707-4.1v-1.955h2v1.932c1.382 0.145 2.465 0.62 3.415 1.551l-1.679 1.682c-0.859-0.832-1.889-0.947-2.787-0.947-1.412 0-2.099 0.792-2.099 1.74 0 0.348 0.115 0.716 0.401 0.986 0.267 0.252 0.706 0.464 1.26 0.541l1.602 0.232c1.241 0.174 2.023 0.522 2.596 1.063 0.726 0.696 1.050 1.702 1.050 2.92 0 2.25-1.567 3.662-3.759 4.055z"></path>
</symbol>
<symbol id="icon-phone" viewBox="0 0 20 20">
<path d="M11.229 11.229c-1.583 1.582-3.417 3.096-4.142 2.371-1.037-1.037-1.677-1.941-3.965-0.102-2.287 1.838-0.53 3.064 0.475 4.068 1.16 1.16 5.484 0.062 9.758-4.211 4.273-4.274 5.368-8.598 4.207-9.758-1.005-1.006-2.225-2.762-4.063-0.475s-0.936 2.927 0.103 3.965c0.722 0.725-0.791 2.559-2.373 4.142z"></path>
</symbol>
<symbol id="icon-shopping-cart" viewBox="0 0 20 20">
<path d="M13 17c0 1.104 0.894 2 2 2 1.104 0 2-0.896 2-2 0-1.106-0.896-2-2-2-1.106 0-2 0.894-2 2zM3 17c0 1.104 0.895 2 2 2 1.103 0 2-0.896 2-2 0-1.106-0.897-2-2-2-1.105 0-2 0.894-2 2zM6.547 12.172l11.068-3.162c0.211-0.061 0.385-0.289 0.385-0.51v-5.5h-14v-1.6c0-0.22-0.181-0.4-0.399-0.4h-3.202c-0.219 0-0.399 0.18-0.399 0.4v1.6h2l1.91 8.957 0.090 0.943v1.649c0 0.219 0.18 0.4 0.4 0.4h13.2c0.22 0 0.4-0.182 0.4-0.4v-1.549h-11.248c-1.15 0-1.174-0.551-0.205-0.828z"></path>
</symbol>
<symbol id="icon-facebook" viewBox="0 0 20 20">
<path d="M17 1h-14c-1.1 0-2 0.9-2 2v14c0 1.101 0.9 2 2 2h7v-7h-2v-2.475h2v-2.050c0-2.164 1.212-3.684 3.766-3.684l1.803 0.002v2.605h-1.197c-0.994 0-1.372 0.746-1.372 1.438v1.69h2.568l-0.568 2.474h-2v7h4c1.1 0 2-0.899 2-2v-14c0-1.1-0.9-2-2-2z"></path>
</symbol>
<symbol id="icon-instagram" viewBox="0 0 20 20">
<path d="M17 1h-14c-1.1 0-2 0.9-2 2v14c0 1.101 0.9 2 2 2h14c1.1 0 2-0.899 2-2v-14c0-1.1-0.9-2-2-2zM9.984 15.523c3.059 0 5.538-2.481 5.538-5.539 0-0.338-0.043-0.664-0.103-0.984h1.581v7.216c0 0.382-0.31 0.69-0.693 0.69h-12.614c-0.383 0-0.693-0.308-0.693-0.69v-7.216h1.549c-0.061 0.32-0.104 0.646-0.104 0.984 0 3.059 2.481 5.539 5.539 5.539zM6.523 9.984c0-1.912 1.55-3.461 3.462-3.461s3.462 1.549 3.462 3.461-1.551 3.462-3.462 3.462c-1.913 0-3.462-1.55-3.462-3.462zM16.307 6h-1.615c-0.382 0-0.692-0.312-0.692-0.692v-1.617c0-0.382 0.31-0.691 0.691-0.691h1.615c0.384 0 0.694 0.309 0.694 0.691v1.616c0 0.381-0.31 0.693-0.693 0.693z"></path>
</symbol>
<symbol id="icon-file-text2" viewBox="0 0 32 32">
<path d="M28.681 7.159c-0.694-0.947-1.662-2.053-2.724-3.116s-2.169-2.030-3.116-2.724c-1.612-1.182-2.393-1.319-2.841-1.319h-15.5c-1.378 0-2.5 1.121-2.5 2.5v27c0 1.378 1.122 2.5 2.5 2.5h23c1.378 0 2.5-1.122 2.5-2.5v-19.5c0-0.448-0.137-1.23-1.319-2.841zM24.543 5.457c0.959 0.959 1.712 1.825 2.268 2.543h-4.811v-4.811c0.718 0.556 1.584 1.309 2.543 2.268zM28 29.5c0 0.271-0.229 0.5-0.5 0.5h-23c-0.271 0-0.5-0.229-0.5-0.5v-27c0-0.271 0.229-0.5 0.5-0.5 0 0 15.499-0 15.5 0v7c0 0.552 0.448 1 1 1h7v19.5z"></path>
<path d="M23 26h-14c-0.552 0-1-0.448-1-1s0.448-1 1-1h14c0.552 0 1 0.448 1 1s-0.448 1-1 1z"></path>
<path d="M23 22h-14c-0.552 0-1-0.448-1-1s0.448-1 1-1h14c0.552 0 1 0.448 1 1s-0.448 1-1 1z"></path>
<path d="M23 18h-14c-0.552 0-1-0.448-1-1s0.448-1 1-1h14c0.552 0 1 0.448 1 1s-0.448 1-1 1z"></path>
</symbol>
<symbol id="icon-coin-pound" viewBox="0 0 32 32">
<path d="M15 2c-8.284 0-15 6.716-15 15s6.716 15 15 15c8.284 0 15-6.716 15-15s-6.716-15-15-15zM15 29c-6.627 0-12-5.373-12-12s5.373-12 12-12c6.627 0 12 5.373 12 12s-5.373 12-12 12z"></path>
<path d="M19 22h-7v-4h3c0.552 0 1-0.448 1-1s-0.448-1-1-1h-3v-1c0-1.654 1.346-3 3-3 1.068 0 2.064 0.575 2.599 1.501 0.277 0.478 0.888 0.641 1.366 0.365s0.641-0.888 0.365-1.366c-0.892-1.542-2.551-2.499-4.331-2.499-2.757 0-5 2.243-5 5v1h-1c-0.552 0-1 0.448-1 1s0.448 1 1 1h1v6h9c0.552 0 1-0.448 1-1s-0.448-1-1-1z"></path>
</symbol>
<symbol id="icon-credit-card" viewBox="0 0 32 32">
<path d="M29 4h-26c-1.65 0-3 1.35-3 3v18c0 1.65 1.35 3 3 3h26c1.65 0 3-1.35 3-3v-18c0-1.65-1.35-3-3-3zM3 6h26c0.542 0 1 0.458 1 1v3h-28v-3c0-0.542 0.458-1 1-1zM29 26h-26c-0.542 0-1-0.458-1-1v-9h28v9c0 0.542-0.458 1-1 1zM4 20h2v4h-2zM8 20h2v4h-2zM12 20h2v4h-2z"></path>
</symbol>
<symbol id="icon-whatsapp" viewBox="0 0 32 32">
<path d="M27.281 4.65c-2.994-3-6.975-4.65-11.219-4.65-8.738 0-15.85 7.112-15.85 15.856 0 2.794 0.731 5.525 2.119 7.925l-2.25 8.219 8.406-2.206c2.319 1.262 4.925 1.931 7.575 1.931h0.006c0 0 0 0 0 0 8.738 0 15.856-7.113 15.856-15.856 0-4.238-1.65-8.219-4.644-11.219zM16.069 29.050v0c-2.369 0-4.688-0.637-6.713-1.837l-0.481-0.288-4.987 1.306 1.331-4.863-0.313-0.5c-1.325-2.094-2.019-4.519-2.019-7.012 0-7.269 5.912-13.181 13.188-13.181 3.519 0 6.831 1.375 9.319 3.862 2.488 2.494 3.856 5.8 3.856 9.325-0.006 7.275-5.919 13.188-13.181 13.188zM23.294 19.175c-0.394-0.2-2.344-1.156-2.706-1.288s-0.625-0.2-0.894 0.2c-0.262 0.394-1.025 1.288-1.256 1.556-0.231 0.262-0.462 0.3-0.856 0.1s-1.675-0.619-3.188-1.969c-1.175-1.050-1.975-2.35-2.206-2.744s-0.025-0.613 0.175-0.806c0.181-0.175 0.394-0.463 0.594-0.694s0.262-0.394 0.394-0.662c0.131-0.262 0.069-0.494-0.031-0.694s-0.894-2.15-1.219-2.944c-0.319-0.775-0.65-0.669-0.894-0.681-0.231-0.012-0.494-0.012-0.756-0.012s-0.694 0.1-1.056 0.494c-0.363 0.394-1.387 1.356-1.387 3.306s1.419 3.831 1.619 4.1c0.2 0.262 2.794 4.269 6.769 5.981 0.944 0.406 1.681 0.65 2.256 0.837 0.95 0.3 1.813 0.256 2.494 0.156 0.762-0.113 2.344-0.956 2.675-1.881s0.331-1.719 0.231-1.881c-0.094-0.175-0.356-0.275-0.756-0.475z"></path>
</symbol>
</defs>
</svg>
